# AST/ASF file generated using VICON BodyLanguage
# -----------------------------------------------
:version 1.10
:name VICON
:units
  mass 1.0
  length 0.45
  angle deg
:documentation
   .ast/.asf automatically generated from VICON data using
   VICON BodyBuilder and BodyLanguage model FoxedUp or BRILLIANT.MOD
:root
   order TX TY TZ RX RY RZ
   axis XYZ
   position 0 0 0  
   orientation 0 0 0 
:bonedata
  begin
     id 1 
     name lhipjoint
     direction 0.528046 -0.759594 0.379717 
     length 2.39752 
     axis 0 0 0  XYZ
  end
  begin
     id 2 
     name lfemur
     direction 0.34202 -0.939693 0  
     length 7.31175  
     axis 0 0 20  XYZ
    dof rx ry rz
    limits (-160.0 20.0)
           (-70.0 70.0)
           (-60.0 70.0)
  end
  begin
     id 3 
     name ltibia
     direction 0.34202 -0.939693 0   
     length 7.52482   
     axis 0 0 20   XYZ
    dof rx
    limits (-10.0 170.0)
  end
  begin
     id 4 
     name lfoot
     direction 0.0675379 -0.185559 0.980309   
     length 2.00961   
     axis -90 7.62852e-016 20   XYZ
    dof rx rz
    limits (-45.0 90.0)
           (-70.0 20.0)
  end
  begin
     id 5 
     name ltoes
     direction 1.5352e-011 -4.22286e-011 1   
     length 1.01383   
     axis -90 7.62852e-016 20   XYZ
    dof rx
    limits (-90.0 20.0)
  end
  begin
     id 6 
     name rhipjoint
     direction -0.510274 -0.769251 0.384544   
     length 2.36742  
     axis 0 0 0  XYZ 
  end
  begin
     id 7 
     name rfemur
     direction -0.34202 -0.939693 0   
     length 7.45325   
     axis 0 0 -20   XYZ
    dof rx ry rz
    limits (-160.0 20.0)
           (-70.0 70.0)
           (-70.0 60.0)
  end
  begin
     id 8 
     name rtibia
     direction -0.34202 -0.939693 0   
     length 7.49587   
     axis 0 0 -20   XYZ
    dof rx
    limits (-10.0 170.0)
 end
 begin
     id 9 
     name rfoot
     direction -0.106475 -0.292536 0.950308   
     length 2.20898  
     axis -90 -7.62852e-016 -20   XYZ
    dof rx rz
    limits (-45.0 90.0)
           (-20.0 70.0)
  end
  begin
     id 10 
     name rtoes
     direction -1.53597e-011 -4.22023e-011 1   
     length 1.10065   
     axis -90 -7.62852e-016 -20   XYZ
    dof rx
    limits (-90.0 20.0)
  end
  begin
     id 11 
     name lowerback
     direction 0.0260024 0.998026 -0.0571652   
     length 2.11214   
     axis 0 0 0   XYZ
    dof rx ry rz
    limits (-20.0 45.0)
           (-30.0 30.0)
           (-30.0 30.0)
  end
  begin
     id 12 
     name upperback
     direction 0.0216202 0.999542 -0.0211766   
     length 2.11689   
     axis 0 0 0   XYZ
    dof rx ry rz
    limits (-20.0 45.0)
           (-30.0 30.0)
           (-30.0 30.0)
  end
  begin
     id 13 
     name thorax
     direction 0.00883312 0.999944 0.00589057   
     length 2.11821   
     axis 0 0 0   XYZ
    dof rx ry rz
    limits (-20.0 45.0)
           (-30.0 30.0)
           (-30.0 30.0)
  end
  begin
     id 14 
     name lowerneck
     direction -0.059386 0.994433 0.0870401   
     length 1.81176   
     axis 0 0 0   XYZ
    dof rx ry rz
    limits (-20.0 45.0)
           (-30.0 30.0)
           (-30.0 30.0)
  end
  begin
     id 15 
     name upperneck
     direction 0.0506457 0.97328 -0.223967   
     length 1.82382   
     axis 0 0 0   XYZ
    dof rx ry rz
    limits (-20.0 45.0)
           (-30.0 30.0)
           (-30.0 30.0)
  end
  begin
     id 16
     name head
     direction 0.0205902 0.996147 -0.0852487  
     length 1.84805  
     axis 0 0 0   XYZ
    dof rx ry rz
    limits (-20.0 45.0)
           (-30.0 30.0)
           (-30.0 30.0)
  end
  begin
     id 17 
     name lclavicle
     direction 0.949493 0.303881 -0.0782325  
     length 3.60584  
     axis 0 0 0   XYZ
    dof ry rz
    limits (-20.0 10.0)
           (0.0 20.0)
  end
  begin
     id 18 
     name lhumerus
     direction 1 -4.48965e-011 1.48782e-027   
     length 4.95681   
     axis 180 -30 -90   XYZ
    dof rx ry rz
    limits (-60.0 90.0)
           (-90.0 90.0)
           (-90.0 90.0)
  end
  begin
     id 19
     name lradius
     direction 1 -4.48952e-011 2.06528e-027   
     length 3.40915   
     axis 180 -30 -90   XYZ
    dof rx
    limits (-10.0 170.0)
  end
  begin
     id 20
     name lwrist
     direction 1 -4.48964e-011 1.28021e-027   
     length 1.70457   
     axis -1.61767e-015 90 90   XYZ
    dof ry
    limits (-180.0 0.0)
 end
  begin
     id 21 
     name lhand
     direction 1 -4.49094e-011 2.54887e-027   
     length 0.616403   
     axis -1.63363e-015 90 90   XYZ
    dof rx rz
    limits (-90.0 90.0)
           (-45.0 45.0)
  end
  begin
     id 22 
     name lfingers
     direction 1 -4.49002e-011 5.11407e-027   
     length 0.49696   
     axis -3.26723e-015 90 90   XYZ
    dof rx
    limits (0.0 90.0)
  end
  begin
     id 23
     name lthumb
     direction 0.707107 -6.34998e-011 0.707107   
     length 0.713539   
     axis -90 45 -2.25915e-014   XYZ
    dof rx rz
    limits (-45.0 45.0)
           (-45.0 45.0)
  end
  begin
     id 24 
     name rclavicle
     direction -0.937751 0.334612 -0.0930482   
     length 3.46287  
     axis 0 0 0   XYZ 
    dof ry rz
    limits (-10.0 20.0)
           (-20.0 0.0)
  end
  begin
     id 25 
     name rhumerus
     direction -1 -4.48962e-011 3.59972e-027  
     length 5.352   
     axis 180 30 90   XYZ
    dof rx ry rz
    limits (-90.0 60.0)
           (-90.0 90.0)
           (-90.0 90.0)
  end
  begin
     id 26 
     name rradius
     direction -1 -4.48987e-011 -3.76925e-027   
     length 3.43721   
     axis 180 30 90   XYZ
    dof rx
    limits (-10.0 170.0)
  end
  begin
     id 27 
     name rwrist
     direction -1 -4.48943e-011 1.28112e-027   
     length 1.7186   
     axis -1.61767e-015 -90 -90   XYZ
    dof ry
    limits (-180.0 0.0)
  end
  begin
     id 28
     name rhand
     direction -1 -4.49027e-011 2.55483e-027   
     length 0.72009   
     axis -1.63363e-015 -90 -90   XYZ
    dof rx rz
    limits (-90.0 90.0)
           (-45.0 45.0)
  end
  begin
     id 29
     name rfingers
     direction -1 -4.48827e-011 5.14506e-027   
     length 0.580555   
     axis -3.26723e-015 -90 -90   XYZ
    dof rx
    limits (0.0 90.0)
  end
  begin
     id 30
     name rthumb
     direction -0.707107 -6.34936e-011 0.707107   
     length 0.833564   
     axis -90 -45 2.25915e-014   XYZ
    dof rx rz
    limits (-45.0 45.0)
           (-45.0 45.0)
  end
:hierarchy
  begin
    root lhipjoint rhipjoint lowerback
    lhipjoint lfemur
    lfemur ltibia
    ltibia lfoot
    lfoot ltoes
    rhipjoint rfemur
    rfemur rtibia
    rtibia rfoot
    rfoot rtoes
    lowerback upperback
    upperback thorax
    thorax lowerneck lclavicle rclavicle
    lowerneck upperneck
    upperneck head
    lclavicle lhumerus
    lhumerus lradius
    lradius lwrist
    lwrist lhand lthumb
    lhand lfingers
    rclavicle rhumerus
    rhumerus rradius
    rradius rwrist
    rwrist rhand rthumb
    rhand rfingers
  end

#!OML:ASF H:\Terrain\Patient Classification 1\Terrain2\Thursday\justin.ASF
:FULLY-SPECIFIED
:DEGREES
261
root -12.3637 17.2472 -11.6965 -49.5106 70.6468 -48.3934
lowerback 10.0995 0.825407 12.0045
upperback 3.84707 2.67806 5.61453
thorax -1.35005 1.51199 -1.12134
lowerneck -13.9489 -1.87073 -7.30841
upperneck 36.6387 -0.403709 3.17029
head 15.1798 -0.322015 2.68477
rclavicle 4.09496e-014 1.90833e-014
rhumerus -29.793 -11.3469 -79.2082
rradius 26.4351
rwrist -8.62798
rhand -22.2981 12.9733
rfingers 7.12502
rthumb 4.12092 -16.9666
lclavicle 4.09496e-014 1.90833e-014
lhumerus -34.1825 11.4632 84.6152
lradius 29.2459
lwrist -2.46304
lhand -20.1583 17.4496
lfingers 7.12502
lthumb 6.18702 47.3393
rfemur 8.22247 -5.09189 38.1254
rtibia 10.2824
rfoot -13.6333 2.73843
rtoes 11.5147
lfemur -58.6734 16.3499 -4.17532
ltibia 100.591
lfoot -16.0075 -14.3171
ltoes -2.78277
262
root -12.3017 17.2444 -11.6885 -49.3799 70.442 -48.1906
lowerback 10.1489 0.907097 12.2034
upperback 3.92532 2.80811 5.61187
thorax -1.26938 1.58573 -1.24377
lowerneck -14.0068 -1.96736 -7.38494
upperneck 36.5414 -0.553903 3.22732
head 15.1582 -0.389793 2.69423
rclavicle 5.33737e-014 6.63941e-014
rhumerus -29.5913 -11.9091 -78.9149
rradius 26.4378
rwrist -7.8574
rhand -21.7522 12.9362
rfingers 7.12502
rthumb 4.64808 -16.9928
lclavicle 5.33737e-014 6.63941e-014
lhumerus -34.1958 11.7369 84.5951
lradius 28.8408
lwrist -2.34661
lhand -20.5552 18.4134
lfingers 7.12502
lthumb 5.80384 48.3139
rfemur 8.7027 -4.89272 38.226
rtibia 9.99647
rfoot -13.7182 2.82333
rtoes 11.514
lfemur -59.6879 16.642 -4.35487
ltibia 100.26
lfoot -16.3749 -14.4685
ltoes -4.91206
263
root -12.2408 17.2429 -11.6786 -48.8038 70.8128 -47.4475
lowerback 10.1958 0.917098 11.8374
upperback 4.03709 2.77148 5.46343
thorax -1.19231 1.57054 -1.19716
lowerneck -14.1384 -2.028 -7.49526
upperneck 36.5373 -0.640825 3.32122
head 15.1951 -0.431197 2.73968
rclavicle 4.96962e-016 -3.77691e-014
rhumerus -29.4307 -11.7385 -78.8824
rradius 26.6808
rwrist -7.60783
rhand -20.9206 12.8482
rfingers 7.12502
rthumb 5.45097 -17.0617
lclavicle 4.96962e-016 -3.77691e-014
lhumerus -34.2766 12.1983 84.3908
lradius 28.4289
lwrist -2.79229
lhand -20.8605 18.8366
lfingers 7.12502
lthumb 5.50903 48.745
rfemur 9.08917 -4.93441 37.7212
rtibia 9.94991
rfoot -13.9453 2.8305
rtoes 10.2242
lfemur -60.5727 16.5795 -5.11552
ltibia 99.662
lfoot -16.0718 -15.1088
ltoes -1.95356
264
root -12.1843 17.2455 -11.6735 -47.4956 71.3215 -46.0721
lowerback 10.2939 0.99269 11.383
upperback 4.03742 2.81826 5.15695
thorax -1.24917 1.58238 -1.28054
lowerneck -14.1613 -2.04189 -7.50203
upperneck 36.5068 -0.686918 3.39544
head 15.1888 -0.441476 2.76383
rclavicle 1.3418e-015 -1.82882e-014
rhumerus -29.3358 -11.5054 -79.0044
rradius 26.9262
rwrist -7.80623
rhand -21.1376 12.8404
rfingers 7.12502
rthumb 5.24148 -17.0747
lclavicle 1.3418e-015 -1.82882e-014
lhumerus -34.3721 11.9505 84.121
lradius 28.096
lwrist -2.69615
lhand -20.796 18.8485
lfingers 7.12502
lthumb 5.57133 48.7553
rfemur 9.35407 -4.87602 36.9088
rtibia 9.79713
rfoot -14.0021 2.79561
rtoes 9.78705
lfemur -61.4176 16.2704 -6.1427
ltibia 98.8317
lfoot -15.6529 -15.3547
ltoes 1.29729
265
root -12.1286 17.2441 -11.6706 -46.4511 71.1955 -45.0497
lowerback 10.4208 1.14838 11.4061
upperback 4.03937 3.03282 4.97167
thorax -1.28227 1.68516 -1.51293
lowerneck -14.214 -2.07206 -7.55644
upperneck 36.4016 -0.79659 3.5943
head 15.1581 -0.469341 2.83588
rclavicle 5.0044e-014 -4.77083e-015
rhumerus -29.1878 -11.0653 -79.2987
rradius 27.1616
rwrist -8.4042
rhand -22.133 12.6602
rfingers 7.12502
rthumb 4.2803 -17.2766
lclavicle 5.0044e-014 -4.77083e-015
lhumerus -34.3328 11.5656 83.8855
lradius 27.766
lwrist -2.19685
lhand -20.1364 18.7555
lfingers 7.12502
lthumb 6.20815 48.6446
rfemur 9.71609 -4.50321 36.8021
rtibia 9.49667
rfoot -13.8567 2.86971
rtoes 10.395
lfemur -62.209 16.3755 -6.51439
ltibia 97.9031
lfoot -15.4667 -15.3429
ltoes 2.104
266
root -12.0677 17.2347 -11.6679 -46.4617 70.8403 -44.8903
lowerback 10.6901 1.16098 11.6141
upperback 4.07563 3.1168 5.02155
thorax -1.37365 1.72726 -1.59155
lowerneck -14.0242 -2.07355 -7.6503
upperneck 36.1982 -0.832358 3.68312
head 15.0189 -0.484943 2.87484
rclavicle 2.79292e-014 1.63003e-014
rhumerus -29.1918 -10.2149 -79.5144
rradius 27.5889
rwrist -9.33662
rhand -22.4079 12.1788
rfingers 7.12502
rthumb 4.01488 -17.7631
lclavicle 2.79292e-014 1.63003e-014
lhumerus -34.4864 11.7808 83.6479
lradius 27.4401
lwrist -1.58773
lhand -19.905 19.0593
lfingers 7.12502
lthumb 6.4315 48.9416
rfemur 10.334 -4.2271 36.938
rtibia 9.04823
rfoot -13.6509 2.86902
rtoes 10.3215
lfemur -62.7362 16.534 -6.42392
ltibia 96.9171
lfoot -15.7198 -15.1864
ltoes -1.50677
267
root -12.0035 17.2281 -11.658 -47.1605 70.862 -45.4133
lowerback 10.9066 1.05707 11.6897
upperback 4.07344 3.03022 5.08384
thorax -1.50417 1.68051 -1.56692
lowerneck -13.6091 -2.02658 -7.22757
upperneck 35.9315 -0.766209 3.22867
head 14.7844 -0.457457 2.60707
rclavicle 3.79679e-014 -1.59028e-014
rhumerus -29.2615 -9.88036 -79.407
rradius 27.967
rwrist -9.89735
rhand -21.7266 12.0174
rfingers 7.12502
rthumb 4.67277 -17.911
lclavicle 3.79679e-014 -1.59028e-014
lhumerus -34.8277 12.9172 82.9977
lradius 26.9567
lwrist -2.56716
lhand -19.8706 18.8399
lfingers 7.12502
lthumb 6.46472 48.7212
rfemur 11.0571 -4.37572 37.0452
rtibia 8.44512
rfoot -13.6712 2.61298
rtoes 9.48206
lfemur -63.2207 16.1826 -6.38735
ltibia 95.8032
lfoot -15.5517 -15.0993
ltoes -4.52672
268
root -11.9413 17.2291 -11.6557 -46.512 71.0952 -44.8554
lowerback 10.8011 1.05762 11.4376
upperback 4.1036 2.98019 5.04803
thorax -1.43213 1.65714 -1.45779
lowerneck -13.6499 -2.00921 -7.2014
upperneck 35.8861 -0.659152 2.98213
head 14.7659 -0.442598 2.51489
rclavicle -4.37326e-015 1.70955e-014
rhumerus -29.063 -9.62449 -79.29
rradius 28.1583
rwrist -10.1165
rhand -21.8104 12.4486
rfingers 7.12502
rthumb 4.59186 -17.4816
lclavicle -4.37326e-015 1.70955e-014
lhumerus -35.0156 13.9425 82.5657
lradius 26.525
lwrist -3.78643
lhand -20.1498 18.4364
lfingers 7.12502
lthumb 6.19517 48.3259
rfemur 11.4491 -4.31723 36.7319
rtibia 7.85939
rfoot -13.6151 2.41395
rtoes 9.08064
lfemur -63.8959 15.8138 -6.88087
ltibia 94.5029
lfoot -14.6913 -15.1796
ltoes -1.21788
269
root -11.8796 17.2295 -11.6467 -45.4796 71.4157 -43.9556
lowerback 10.6181 1.07533 10.8508
upperback 4.14027 2.90739 5.05919
thorax -1.33435 1.6202 -1.11246
lowerneck -13.8121 -2.02776 -7.74209
upperneck 35.8538 -0.608101 3.22293
head 14.7923 -0.464623 2.71881
rclavicle -4.87022e-015 1.31198e-014
rhumerus -28.7805 -8.79179 -79.3351
rradius 28.3078
rwrist -10.5895
rhand -22.7009 12.5487
rfingers 7.12502
rthumb 3.73192 -17.3983
lclavicle -4.87022e-015 1.31198e-014
lhumerus -35.1325 14.416 82.5656
lradius 26.2353
lwrist -3.94537
lhand -20.6847 18.5049
lfingers 7.12502
lthumb 5.67876 48.4088
rfemur 11.8575 -4.23189 36.2928
rtibia 7.17165
rfoot -13.4037 2.36509
rtoes 8.76112
lfemur -64.5191 15.5573 -7.55514
ltibia 93.0771
lfoot -14.3723 -14.8956
ltoes 0.623784
270
root -11.8156 17.2302 -11.6358 -44.4525 71.5514 -42.9977
lowerback 10.5807 1.18089 10.5097
upperback 4.14627 2.99541 4.94803
thorax -1.31221 1.65966 -1.05091
lowerneck -13.7995 -2.04954 -7.62177
upperneck 35.7776 -0.666637 3.1729
head 14.7558 -0.480223 2.66417
rclavicle -3.58806e-014 -3.61788e-014
rhumerus -28.5958 -8.34191 -79.4553
rradius 28.4508
rwrist -11.1626
rhand -22.9818 12.406
rfingers 7.12502
rthumb 3.46065 -17.5457
lclavicle -3.58806e-014 -3.61788e-014
lhumerus -35.232 14.9414 82.2356
lradius 25.9013
lwrist -4.26501
lhand -20.631 18.415
lfingers 7.12502
lthumb 5.73063 48.3175
rfemur 12.4236 -4.03324 35.9513
rtibia 6.3519
rfoot -13.1974 2.48634
rtoes 8.33894
lfemur -64.9199 15.4413 -8.00545
ltibia 91.601
lfoot -14.2584 -14.4466
ltoes 0.718948
271
root -11.7458 17.2239 -11.6356 -44.456 71.4718 -42.892
lowerback 10.671 1.21042 10.7702
upperback 4.24755 3.06229 4.83927
thorax -1.22646 1.70301 -1.31348
lowerneck -13.8475 -2.01597 -7.34684
upperneck 35.7802 -0.652593 3.05601
head 14.7629 -0.452861 2.56929
rclavicle -3.84648e-014 -9.93923e-015
rhumerus -28.4069 -8.17309 -79.5858
rradius 28.6268
rwrist -11.754
rhand -22.9295 12.5871
rfingers 7.12502
rthumb 3.51115 -17.3637
lclavicle -3.84648e-014 -9.93923e-015
lhumerus -35.1806 15.6269 81.6836
lradius 25.5215
lwrist -4.52908
lhand -20.0762 18.457
lfingers 7.12502
lthumb 6.26624 48.3443
rfemur 13.3446 -3.92412 35.897
rtibia 5.26744
rfoot -12.8384 2.57188
rtoes 8.54389
lfemur -65.0359 15.2244 -7.99245
ltibia 90.1132
lfoot -13.824 -14.2984
ltoes 2.92572
272
root -11.6763 17.2063 -11.6327 -45.9516 71.2443 -44.1955
lowerback 10.8371 1.12937 11.2918
upperback 4.38932 3.03863 4.96547
thorax -1.14632 1.70983 -1.46447
lowerneck -13.8102 -1.99959 -7.41979
upperneck 35.6777 -0.666692 3.19569
head 14.7069 -0.449359 2.63457
rclavicle -4.47266e-015 1.70955e-014
rhumerus -28.1903 -8.10617 -79.5612
rradius 28.722
rwrist -11.8786
rhand -23.3836 12.6442
rfingers 7.12502
rthumb 3.0727 -17.3134
lclavicle -4.47266e-015 1.70955e-014
lhumerus -35.0566 16.1462 81.3467
lradius 25.1493
lwrist -4.53601
lhand -19.751 18.7143
lfingers 7.12502
lthumb 6.58022 48.5921
rfemur 14.3528 -4.07882 36.3299
rtibia 4.30768
rfoot -12.4835 2.36729
rtoes 8.42126
lfemur -65.0819 14.8841 -7.47638
ltibia 88.6094
lfoot -13.2118 -14.206
ltoes 3.92428
273
root -11.6092 17.1996 -11.6227 -45.9441 71.3939 -44.1265
lowerback 10.7694 1.06917 10.8135
upperback 4.5568 2.89741 5.14271
thorax -0.984569 1.64963 -0.997815
lowerneck -13.9034 -1.94601 -7.60392
upperneck 35.5625 -0.513321 3.12599
head 14.6664 -0.420627 2.65858
rclavicle -4.37326e-015 -1.11319e-014
rhumerus -27.6776 -8.14411 -79.3501
rradius 28.5308
rwrist -11.2516
rhand -23.4419 12.8677
rfingers 7.12502
rthumb 3.01633 -17.0907
lclavicle -4.37326e-015 -1.11319e-014
lhumerus -35.0648 16.9233 81.2751
lradius 24.902
lwrist -4.75282
lhand -19.8297 18.8082
lfingers 7.12502
lthumb 6.50424 48.6883
rfemur 15.8373 -4.12433 36.1763
rtibia 2.03724
rfoot -11.5258 2.26993
rtoes 7.25679
lfemur -65.1246 14.56 -7.6135
ltibia 87.0292
lfoot -12.6522 -13.9731
ltoes 4.34179
274
root -11.5421 17.2073 -11.6183 -43.5936 72.1001 -41.8678
lowerback 10.8581 1.21847 10.1835
upperback 4.39903 3.01939 4.68429
thorax -1.19918 1.68178 -1.15495
lowerneck -13.9224 -2.0625 -7.84871
upperneck 35.6689 -0.707635 3.42463
head 14.738 -0.495254 2.79964
rclavicle 4.90004e-014 2.66371e-014
rhumerus -27.7332 -8.54874 -79.3384
rradius 28.5477
rwrist -11.2707
rhand -22.7218 13.4686
rfingers 7.12502
rthumb 3.71177 -16.4788
lclavicle 4.90004e-014 2.66371e-014
lhumerus -35.2702 16.6467 81.0615
lradius 24.7244
lwrist -4.67867
lhand -20.1938 19.1981
lfingers 7.12502
lthumb 6.1527 49.0888
rfemur 16.9393 -3.99001 35.0462
rtibia -6.36111e-014
rfoot -10.626 2.36172
rtoes 7.6563
lfemur -65.18 14.1653 -8.80949
ltibia 85.3379
lfoot -12.3291 -13.5381
ltoes 4.65725
275
root -11.4722 17.1684 -11.6109 -47.0004 71.2981 -45.1717
lowerback 11.1478 1.10182 11.6708
upperback 4.49158 3.08688 4.91303
thorax -1.177 1.74304 -1.739
lowerneck -14.0234 -2.16184 -7.71985
upperneck 35.645 -0.92673 3.51995
head 14.7642 -0.559262 2.78081
rclavicle 5.83433e-014 -1.98785e-014
rhumerus -27.549 -8.35009 -79.4281
rradius 28.6111
rwrist -11.9767
rhand -22.8707 13.5771
rfingers 7.12502
rthumb 3.56798 -16.3727
lclavicle 5.83433e-014 -1.98785e-014
lhumerus -35.1166 16.5852 80.8175
lradius 24.4185
lwrist -4.58368
lhand -20.6026 19.5112
lfingers 7.12502
lthumb 5.758 49.413
rfemur 17.4046 -4.19748 36.3833
rtibia -6.52014e-014
rfoot -10.7506 2.40515
rtoes 9.33317
lfemur -65.2342 14.0433 -7.36618
ltibia 83.9878
lfoot -11.682 -13.5591
ltoes 3.85319
